<svg id="visual" viewBox="0 0 900 600" width="900" height="600" xmlns="http://www.w3.org/2000/svg" xmlns:xlink="http://www.w3.org/1999/xlink" version="1.1"><rect x="0" y="0" width="900" height="600" fill="#081a2c"></rect><path d="M391 600L419.8 588.8C448.7 577.7 506.3 555.3 512.3 533.2C518.3 511 472.7 489 431.7 466.8C390.7 444.7 354.3 422.3 353.5 400C352.7 377.7 387.3 355.3 393.5 333.2C399.7 311 377.3 289 400 266.8C422.7 244.7 490.3 222.3 505.8 200C521.3 177.7 484.7 155.3 485.2 133.2C485.7 111 523.3 89 504.3 66.8C485.3 44.7 409.7 22.3 371.8 11.2L334 0L900 0L900 11.2C900 22.3 900 44.7 900 66.8C900 89 900 111 900 133.2C900 155.3 900 177.7 900 200C900 222.3 900 244.7 900 266.8C900 289 900 311 900 333.2C900 355.3 900 377.7 900 400C900 422.3 900 444.7 900 466.8C900 489 900 511 900 533.2C900 555.3 900 577.7 900 588.8L900 600Z" fill="#4d86dc" stroke-linecap="round" stroke-linejoin="miter"></path></svg>